<?xml version="1.0" encoding="UTF-8" standalone="no"?>
<svg
   viewBox="0 0 24 24"
   id="windsock"
   version="1.1"
   sodipodi:docname="windsock.svg"
   inkscape:export-filename="windsock.svg"
   inkscape:export-xdpi="96"
   inkscape:export-ydpi="96"
   inkscape:version="1.4.2 (f4327f4, 2025-05-13)"
   xmlns:inkscape="http://www.inkscape.org/namespaces/inkscape"
   xmlns:sodipodi="http://sodipodi.sourceforge.net/DTD/sodipodi-0.dtd"
   xmlns="http://www.w3.org/2000/svg"
   xmlns:svg="http://www.w3.org/2000/svg">
  <defs
     id="defs1" />
  <sodipodi:namedview
     id="namedview1"
     pagecolor="#505050"
     bordercolor="#eeeeee"
     borderopacity="1"
     inkscape:showpageshadow="0"
     inkscape:pageopacity="0"
     inkscape:pagecheckerboard="0"
     inkscape:deskcolor="#505050"
     inkscape:zoom="33.625"
     inkscape:cx="11.98513"
     inkscape:cy="12"
     inkscape:window-width="1920"
     inkscape:window-height="1009"
     inkscape:window-x="-8"
     inkscape:window-y="-8"
     inkscape:window-maximized="1"
     inkscape:current-layer="windsock" />
  <path
     d="M18.08,5,10,4.33h0L7,4.08V3A1,1,0,0,0,5,3V21a1,1,0,0,0,2,0V13.92l3-.25h0L18.08,13A1,1,0,0,0,19,12V6A1,1,0,0,0,18.08,5ZM9,11.75l-2,.16V6.09l2,.16Zm4-.34-2,.17V6.42l2,.17Zm4-.33-2,.17V6.75l2,.17Z"
     id="path1" />
  <path
     style="fill:#ffffff;stroke:#222222;stroke-width:0.00924907"
     d="M 5.7487944,21.95271 C 5.4730745,21.875005 5.2350238,21.669977 5.1044711,21.39777 L 5.0260223,21.234201 V 12 2.7657993 L 5.103177,2.6022305 c 0.09775,-0.2072312 0.2822514,-0.391394 0.4977322,-0.4968189 0.1386237,-0.067822 0.207836,-0.082324 0.3929045,-0.082324 0.1936723,0 0.2519021,0.013421 0.4223979,0.097356 0.2375213,0.1169313 0.4123013,0.3034073 0.4972948,0.5305728 0.053873,0.1439882 0.060471,0.2309676 0.060471,0.7971229 v 0.6354989 l 0.1412639,0.017764 c 0.077695,0.00977 2.5836432,0.2191743 5.5687737,0.4653426 3.251377,0.2681243 5.488607,0.4647253 5.579894,0.4903441 0.211448,0.059341 0.424663,0.2100357 0.538788,0.3808015 0.194629,0.2912258 0.186151,0.1293386 0.186151,3.5544044 0,3.4473092 0.0081,3.2998322 -0.195478,3.5802442 -0.129843,0.178889 -0.308846,0.309063 -0.50151,0.364705 -0.09309,0.02689 -2.272614,0.219635 -5.708013,0.504797 -3.0565792,0.253718 -5.5692185,0.461305 -5.5836431,0.461305 -0.014999,0 -0.026226,1.559078 -0.026226,3.642007 0,3.589099 -8.785e-4,3.644355 -0.060471,3.803631 C 6.7453857,21.798328 6.2014427,22.08028 5.7487944,21.95271 Z M 7.9409035,11.851713 c 0.4087111,-0.03249 0.820063,-0.06726 0.9141151,-0.07727 l 0.1710037,-0.0182 V 8.9933624 c 0,-2.6219756 -0.00268,-2.7628791 -0.052568,-2.7628791 -0.028913,0 -0.4605112,-0.033358 -0.9591078,-0.074128 -0.4985968,-0.04077 -0.936651,-0.074228 -0.973454,-0.074349 l -0.066915,-2.215e-4 v 2.9144981 2.9144981 h 0.1119071 c 0.061549,0 0.4463072,-0.02658 0.8550187,-0.05907 z M 12,11.509553 c 0.466171,-0.04057 0.884465,-0.07395 0.929542,-0.07418 l 0.08196,-4.25e-4 -0.0076,-2.430831 -0.0076,-2.4308312 -0.936803,-0.080303 c -0.515242,-0.044166 -0.966915,-0.081147 -1.003718,-0.08218 l -0.06691,-0.00188 v 2.5873606 2.5873606 l 0.08178,-1.65e-4 c 0.04498,-9e-5 0.463197,-0.03336 0.929368,-0.07392 z m 4.104089,-0.336857 0.907063,-0.07976 0.0076,-2.0878342 0.0076,-2.0878344 -0.09686,-0.015317 c -0.08219,-0.012999 -1.868513,-0.1664 -1.933285,-0.1660223 -0.01227,7.14e-5 -0.0223,1.0172304 -0.0223,2.260353 v 2.2602239 l 0.111524,-0.002 c 0.06134,-0.0011 0.519702,-0.03792 1.018587,-0.08178 z"
     id="path2" />
  <path
     style="fill:#ffffff;stroke:none;stroke-width:0.00924907"
     d="M 5.6744088,21.902131 C 5.4676139,21.820172 5.2504992,21.619138 5.1352471,21.402903 L 5.0408922,21.225875 V 12.002283 2.7786918 l 0.07621,-0.1503931 C 5.2199809,2.4252773 5.3925665,2.2442204 5.5825011,2.1400557 5.7184156,2.065517 5.7720913,2.0536826 5.9776952,2.0529233 c 0.2014288,-7.439e-4 0.2639127,0.011886 0.4074077,0.082352 0.2260133,0.1109879 0.4239373,0.3160165 0.4991664,0.5170841 0.0533,0.1424578 0.059969,0.2313604 0.059969,0.7995035 0,0.4847413 0.00898,0.6423091 0.037175,0.6519928 0.020446,0.00702 2.0646841,0.1812032 4.5427517,0.3870662 6.378759,0.5299091 6.695125,0.5599778 6.888806,0.6547374 0.183688,0.08987 0.426315,0.3430061 0.486645,0.5077216 0.03561,0.097224 0.04416,0.6149499 0.0525,3.1793327 0.0066,2.0439514 -5.21e-4,3.1423614 -0.02155,3.3011154 -0.0258,0.194754 -0.0508,0.265951 -0.137823,0.392435 -0.117694,0.171065 -0.253194,0.285971 -0.418839,0.355181 -0.155704,0.06506 -2.345442,0.261368 -8.946395,0.802045 -1.3412639,0.109862 -2.44343,0.203465 -2.4492578,0.208007 -0.00583,0.0045 -0.019295,1.6652 -0.029927,3.690351 -0.019184,3.654019 -0.019806,3.683113 -0.081585,3.815922 -0.077357,0.166295 -0.3250778,0.40045 -0.510357,0.482408 -0.2026504,0.08964 -0.4880062,0.09883 -0.681973,0.02195 z M 7.5687732,11.897335 c 0.9869523,-0.07269 1.4110026,-0.108434 1.4532116,-0.122486 0.033988,-0.01132 0.038754,-0.459704 0.02937,-2.7629501 C 9.0441963,7.2550525 9.0295488,6.2526153 9.0107822,6.2351967 8.994629,6.2202037 8.5866171,6.1793532 8.1040892,6.1444175 7.6215613,6.1094819 7.163197,6.0731506 7.0855019,6.0636809 L 6.9442379,6.046463 v 2.9470287 c 0,1.6208653 0.010037,2.9469223 0.022305,2.9467933 0.012268,-1.3e-4 0.2832713,-0.01946 0.6022303,-0.04295 z m 4.3122678,-0.358553 c 0.482528,-0.04059 0.940654,-0.07387 1.018058,-0.07395 l 0.140734,-1.47e-4 -0.01846,-2.4460966 C 13.011223,7.6732352 12.998923,6.5677661 12.994053,6.56199 12.989153,6.55621 12.606279,6.520187 12.143158,6.48193 11.680037,6.443673 11.224168,6.40511 11.130116,6.396233 L 10.959108,6.380094 v 2.6166444 c 0,1.4391546 0.01004,2.6164656 0.0223,2.6162476 0.01227,-2.19e-4 0.4171,-0.03361 0.899628,-0.0742 z m 4.306147,-0.355179 c 0.446448,-0.03768 0.815971,-0.0735 0.821161,-0.07959 0.0052,-0.0061 0.01766,-0.956218 0.0277,-2.1113895 L 17.054309,6.8923113 16.80968,6.8707663 C 15.583003,6.762731 14.987223,6.7144532 14.978578,6.7223881 c -0.0056,0.00518 -0.01776,1.034919 -0.02691,2.2882992 l -0.01664,2.2788727 0.220217,-0.01872 c 0.121119,-0.0103 0.585492,-0.04955 1.03194,-0.08723 z"
     id="path3" />
</svg>
